<svg xmlns="http://www.w3.org/2000/svg" viewBox="0 0 265.71 56.74"><g data-name="图层 2"><g data-name="图层 1"><path d="M193.14 28.24v13.87h-5.21V6.24h8.43a13.58 13.58 0 0 1 4.9.8 9.45 9.45 0 0 1 3.44 2.21 8.85 8.85 0 0 1 2 3.35 13.06 13.06 0 0 1 .66 4.24 13.44 13.44 0 0 1-.19 2.08 12.87 12.87 0 0 1-.66 2.46 11.68 11.68 0 0 1-1.31 2.5 9.27 9.27 0 0 1-2.13 2.2 10.71 10.71 0 0 1-3.07 1.57 13.63 13.63 0 0 1-4.25.6zm0-4.6h2.63a7.63 7.63 0 0 0 2.63-.44 5.56 5.56 0 0 0 2-1.28 5.73 5.73 0 0 0 1.32-2.08 8 8 0 0 0 .46-2.82 8.45 8.45 0 0 0-.32-2.37 5 5 0 0 0-1.06-1.95 5.13 5.13 0 0 0-1.94-1.33 7.9 7.9 0 0 0-3-.49h-2.79zm18.14-17.86h4.93v29.9a3.18 3.18 0 0 0 .31 1.65 1 1 0 0 0 .86.48 2.47 2.47 0 0 0 1.06-.21l1-.48.83 3.07a9.26 9.26 0 0 1-1 .73 9 9 0 0 1-1.18.61 8.18 8.18 0 0 1-1.27.42 5.43 5.43 0 0 1-1.3.16 6 6 0 0 1-1.57-.21 3 3 0 0 1-1.35-.79 4.18 4.18 0 0 1-.95-1.61 8.19 8.19 0 0 1-.36-2.66zM222.7 19.3a12 12 0 0 1 4-2.88 11.75 11.75 0 0 1 4.87-1 11.36 11.36 0 0 1 3.31.48 8.3 8.3 0 0 1 2.81 1.46 7 7 0 0 1 2 2.52 8.44 8.44 0 0 1 .73 3.65V35a10.3 10.3 0 0 0 .08 1.4 2.46 2.46 0 0 0 .27.89 1.05 1.05 0 0 0 .49.45 1.8 1.8 0 0 0 .73.13 4.33 4.33 0 0 0 .59-.07c.29 0 .57-.1.83-.17l.55 2.75q-.47.36-1 .67a6.65 6.65 0 0 1-1.06.54 7.59 7.59 0 0 1-1.23.37 6.86 6.86 0 0 1-1.45.14 3.6 3.6 0 0 1-3.76-3.18 9.88 9.88 0 0 1-1.72 1.55 8.81 8.81 0 0 1-1.79 1 8.47 8.47 0 0 1-1.8.5 11.09 11.09 0 0 1-1.75.14 7 7 0 0 1-2.59-.45 5.18 5.18 0 0 1-2-1.35 6.1 6.1 0 0 1-1.25-2.22 10 10 0 0 1-.43-3.1 10.89 10.89 0 0 1 .5-3.48 8 8 0 0 1 1.4-2.57 7.74 7.74 0 0 1 2.12-1.78 11.7 11.7 0 0 1 2.7-1.16 18.5 18.5 0 0 1 3.08-.57 32.22 32.22 0 0 1 3.31-.17v-.93a7 7 0 0 0-.3-2.18 4 4 0 0 0-.82-1.48 3.22 3.22 0 0 0-1.26-.85 4.59 4.59 0 0 0-1.62-.28 6.36 6.36 0 0 0-1.43.16 4.93 4.93 0 0 0-1.36.55 8.56 8.56 0 0 0-1.45 1.09 19.26 19.26 0 0 0-1.59 1.66zm12.53 8.83a15 15 0 0 0-3.77.6 6.39 6.39 0 0 0-2.33 1.27 4.14 4.14 0 0 0-1.2 1.82 7.38 7.38 0 0 0-.34 2.28 6.47 6.47 0 0 0 .2 1.75 3 3 0 0 0 .56 1.12 2 2 0 0 0 .88.61 3.41 3.41 0 0 0 1.13.18 9.38 9.38 0 0 0 1.14-.07 6.25 6.25 0 0 0 1.2-.28 7 7 0 0 0 1.25-.56 8.51 8.51 0 0 0 1.29-.91zm11.26-7.42v-2a18.58 18.58 0 0 0-.23-2.45h4.85a3.67 3.67 0 0 1 .12.47l.13.65q.07.35.12.72l.09.68a9.11 9.11 0 0 1 1.15-1.05 9.63 9.63 0 0 1 1.47-.95 8.59 8.59 0 0 1 1.73-.67 7.4 7.4 0 0 1 1.94-.25 7.69 7.69 0 0 1 3.1.62 7.17 7.17 0 0 1 2.49 1.79 8.57 8.57 0 0 1 1.67 2.87 11.29 11.29 0 0 1 .61 3.85v17.1h-5.15v-15.9a11.52 11.52 0 0 0-.26-2.63 4.56 4.56 0 0 0-.76-1.73 3 3 0 0 0-1.24-1 4.43 4.43 0 0 0-1.68-.3 7.1 7.1 0 0 0-1.19.11 9.16 9.16 0 0 0-1.3.32 13 13 0 0 0-1.31.5 8.9 8.9 0 0 0-1.2.65v20h-5.15z" fill="#80a924"/><path d="M29.65 41.83c-7.14 0-10.58-7.25-10.58-13.75s3.44-13.75 10.58-13.75 10.58 7.3 10.58 13.75-3.44 13.75-10.58 13.75zm0-22.74c-3.12 0-5 4.34-5 9s1.9 9 5 9 5-4.28 5-9-1.88-9-5-9zm32.01 22.74a5.43 5.43 0 0 1-4.07-3.17c-2 1.53-5.29 3.17-7.78 3.17-5.18 0-7.14-2.54-7.14-7.46V15.12h5.55v19.26c0 1.69.32 2.54 2.27 2.54s4.6-1.43 6.24-2.64V15.12h5.55v21.11a3.22 3.22 0 0 0 1.06 2.54zM79.57 41V21.89c0-2-.32-2.75-2.06-2.75-2.33 0-5.18 1.75-6.45 2.75V41H65.5V15.12h5.55V17a13.28 13.28 0 0 1 7.09-2.7c5.92 0 7 3.6 7 7.56V41zm25.18-21.12a13.89 13.89 0 0 1 .74 3.91 8.28 8.28 0 0 1-6.72 8.52c-.58.1-1.16.16-1.8.32-.85.21-3.17.63-3.17 2.38 0 1.43 4.18 1 5.39 1h1.69c3.54 0 6.66 2.06 6.66 5.87 0 6.24-6.19 9.63-11.79 9.63-4.28 0-9.2-1.69-9.2-6.72 0-2.65 2.8-4.6 4.76-5.45a4 4 0 0 1-3.12-3.76c0-2.06 1.85-3.54 3.7-4.23-3.07-1.27-4.44-4.76-4.44-7.72 0-5.66 3.76-9.31 9.36-9.31a10.9 10.9 0 0 1 4.34.79h6.61v4.76zM98.19 40.3h-3.07S92 41.89 92 44.06c0 2.7 2 3.44 4 3.44 3.07 0 6.24-1.9 6.24-5.18-.03-2.02-2.62-2.02-4.05-2.02zm-1.69-22c-2.75 0-3.6 2.38-3.6 4.71 0 2.64.58 5.18 3.7 5.18 2.75 0 3.54-2.54 3.54-4.81s-.84-5.03-3.64-5.03zm38.97 23.81V16.2h5.45v25.91zm42.28 0a6.63 6.63 0 0 1-3.07-.53 5.35 5.35 0 0 1-2-3.44 7 7 0 0 1-6.19 4c-5.87 0-9.57-5.76-9.57-12.59 0-7.35 2.22-14.92 10.37-14.92a19.67 19.67 0 0 1 4.87.85V7h5.55v28.87c0 1.59.11 2.27 1.75 2.27zm-5.61-21.79a20 20 0 0 0-4.65-.85c-4.23 0-4.87 5.24-4.87 9.47 0 2.49.53 8.09 4.23 8.36s5.29-5.45 5.29-8.15zM150.3 18v-1.8h-5.55v25.91h5.55v-19.2c.26-.39 2.63-3.74 6.31-1.44l1.22-5s-4.55-2.65-7.53 1.53z"/><path d="M17.61 7.72L8.89 30.2v10.84h5.76V28.61l8.89-20.89h-5.93zm-6.2 14.17L6.19 7.72H0l8.36 19.53 3.05-5.36zm119.21 2.79s-3.06-2.93-12-2.54v-9.33h2.86c2.39 0 4.06.35 4.61 2.26.12.41 1.19 4.07-2.26 5.88a13.35 13.35 0 0 1 4.77 1.76 8 8 0 0 0 3.4-6.62c0-6-5.29-8.09-10.47-8.09h-8.68v32.63a35.5 35.5 0 0 0 8.78 1.48c6.61 0 12.17-3.7 12.17-10.84a8.2 8.2 0 0 0-3.18-6.59zM121.53 37a11.18 11.18 0 0 1-2.91-.47V26.35h2.64c3.6 0 6.77.53 6.77 4.92-.03 4.02-2.7 5.73-6.5 5.73zM76.46 56.67h-.07v.07h.07z"/><path d="M261.09 0v.07h.07z" fill="#231815"/></g></g></svg>