<svg xmlns="http://www.w3.org/2000/svg" viewBox="0 0 58.41 46.84"><g data-name="图层 2"><g data-name="Layer 1"><path fill="#fff" d="M0 0h58.41v46.84H0z"/><path d="M58.36 0H0v46.84h58.41V0zM3.44.25L.25 3.44V.25zm.35 0h3.82L.25 7.61V3.79zM8 .25h3.82L.25 11.79V8zm4.18 0H16L.25 16v-3.85zm4.18 0h3.82L.25 20.15v-3.83zm4.18 0h3.82L.25 24.33V20.5zm4.18 0h3.82L.25 28.5v-3.82l.24-.24zm4.18 0h3.82L.25 32.68v-3.82zm4.1 0h3.82L.25 36.86V33zm4.18 0H41L.25 41v-3.78zm4.18 0h3.82l-45 45v-3.86zM.25 46.59v-1L45.57.25h3.83L3.06 46.59zm3.17 0L49.75.25h3.82L7.24 46.59zm4.18 0L53.93.25h3.82L11.42 46.59zm50.14 0l.42-.42v.42zm-.35 0h-3.83l4.6-4.6v3.82zm-4.18 0h-3.83l8.78-8.78v3.82zm-4.18 0H45.2l13-13v3.82zm-4.18 0H41l17.16-17.14v3.82zm-4.18 0h-3.83l21.32-21.32v3.83zm-4.18 0h-3.83l25.5-25.5v3.82zm-4.18 0h-3.82l29.67-29.67v3.82zm-4.18 0h-3.82l33.85-33.85v3.82zm-4.18 0h-3.82l38-38v3.82zm-4.18 0H16L58.16 4.38V8.2zm-4.18 0h-3.82l.25-.25L58.11.25V4z" fill="#6b6b6b"/><path fill="#231916" d="M48.08 23.4L36.85 12.17l-3.54 3.54 5.89 5.88H10.33v3h29.52l-6.54 6.54 3.53 3.54 11.23-11.24-.01-.01.02-.02z"/></g></g></svg>