<svg xmlns="http://www.w3.org/2000/svg" viewBox="0 0 58.41 46.84"><defs><style>.cls-1{fill:#fff;}.cls-2{fill:#6b6b6b;}.cls-3{fill:#231916;}</style></defs><title>right</title><g id="图层_2" data-name="图层 2"><g id="Layer_1" data-name="Layer 1"><rect class="cls-1" width="58.41" height="46.84"/><path class="cls-2" d="M58.36,0H0V46.84H58.41V0ZM3.44.25.25,3.44V.25Zm.35,0H7.61L.25,7.61V3.79ZM8,.25h3.82L.25,11.79V8Zm4.18,0H16L.25,16V12.15Zm4.18,0h3.82L.25,20.15V16.32Zm4.18,0h3.82L.25,24.33V20.5Zm4.18,0h3.82L.25,28.5V24.68l.24-.24Zm4.18,0h3.82L.25,32.68V28.86ZM33,.25h3.82L.25,36.86V33Zm4.18,0H41L.25,41V37.22Zm4.18,0h3.82l-45,45V41.39ZM.25,46.59v-1L45.57.25H49.4L3.06,46.59Zm3.17,0L49.75.25h3.82L7.24,46.59Zm4.18,0L53.93.25h3.82L11.42,46.59Zm50.14,0,.42-.42v.42Zm-.35,0H53.56l4.6-4.6v3.82Zm-4.18,0H49.38l8.78-8.78v3.82Zm-4.18,0H45.2l13-13v3.82Zm-4.18,0H41L58.16,29.45v3.82Zm-4.18,0H36.84L58.16,25.27V29.1Zm-4.18,0H32.66L58.16,21.09v3.82Zm-4.18,0H28.49L58.16,16.92v3.82Zm-4.18,0H24.31L58.16,12.74v3.82Zm-4.18,0H20.13l38-38v3.82Zm-4.18,0H16L58.16,4.38V8.2Zm-4.18,0H11.77l.25-.25L58.11.25h0V4Z"/><polygon class="cls-3" points="48.08 23.4 36.85 12.17 33.31 15.71 39.2 21.59 10.33 21.59 10.33 24.59 39.85 24.59 33.31 31.13 36.84 34.67 48.07 23.43 48.06 23.42 48.08 23.4"/></g></g></svg>